<?xml version="1.0" encoding="utf-8"?>
<!-- Generator: Adobe Illustrator 23.1.1, SVG Export Plug-In . SVG Version: 6.00 Build 0)  -->
<svg version="1.1" id="Layer_1" xmlns="http://www.w3.org/2000/svg" xmlns:xlink="http://www.w3.org/1999/xlink" x="0px" y="0px"
	 viewBox="0 0 48 48" style="enable-background:new 0 0 48 48;" xml:space="preserve">
<style type="text/css">
	.st0{fill:#FFFFFF;}
</style>
<g>
	<path class="st0" d="M24.3,9.5c0-2.5-2-4.6-4.6-4.6c-2.5,0-4.6,2-4.6,4.6c0,2.5,2,4.6,4.6,4.6S24.3,12,24.3,9.5z M19.7,12.1
		c-1.4,0-2.6-1.1-2.6-2.6c0-1.4,1.1-2.6,2.6-2.6c1.4,0,2.6,1.1,2.6,2.6C22.3,10.9,21.2,12.1,19.7,12.1z"/>
	<path class="st0" d="M15.4,21.5c0-2.5-2-4.6-4.6-4.6s-4.6,2-4.6,4.6c0,2.5,2,4.6,4.6,4.6S15.4,24,15.4,21.5z M8.3,21.5
		c0-1.4,1.1-2.6,2.6-2.6c1.4,0,2.6,1.1,2.6,2.6c0,1.4-1.1,2.6-2.6,2.6S8.3,22.9,8.3,21.5z"/>
	<path class="st0" d="M14.1,28.6c-2.5,0-4.6,2-4.6,4.6c0,2.5,2,4.6,4.6,4.6c2.5,0,4.6-2,4.6-4.6C18.6,30.7,16.6,28.6,14.1,28.6z
		 M14.1,35.8c-1.4,0-2.6-1.1-2.6-2.6c0-1.4,1.1-2.6,2.6-2.6c1.4,0,2.6,1.1,2.6,2.6C16.6,34.6,15.5,35.8,14.1,35.8z"/>
	<path class="st0" d="M26.9,34.2c-2.5,0-4.6,2-4.6,4.6c0,2.5,2,4.6,4.6,4.6s4.6-2,4.6-4.6C31.4,36.3,29.4,34.2,26.9,34.2z
		 M26.9,41.3c-1.4,0-2.6-1.1-2.6-2.6c0-1.4,1.1-2.6,2.6-2.6c1.4,0,2.6,1.1,2.6,2.6C29.4,40.2,28.3,41.3,26.9,41.3z"/>
	<path class="st0" d="M48,9.7c0-1.7-2.5-7.9-3-9.1C44.8,0.2,44.4,0,44,0s-0.8,0.2-0.9,0.6c-0.5,1.2-3,7.4-3,9.1
		c0,0.9,0.4,3.9,1.1,5.4c-0.3,2.6-0.5,5.2-0.6,7.9c-0.6-0.4-1.2-0.8-1.9-1.1c-1-0.5-2-0.5-2.7-0.5c-0.4,0-0.8,0-1.2,0
		c-1.4,0.1-2.9,0.3-4.6-1c-1.5-1.1-1.2-3.3-0.6-6.7c0.9-4.5,1.9-10.1-4.5-13C24,0.3,22.7,0,21.3,0C14.7,0,7.5,6,4.4,10.2
		C-3.2,20.9-0.7,35.8,10,43.5c4.1,2.9,9.2,4.5,14.3,4.5c6.9,0,13.2-2.9,17.3-7.9c0.4,2.6,0.9,5,1.5,7.1c0.1,0.4,0.5,0.7,1,0.7
		s0.8-0.3,1-0.7c2.4-8.5,3.2-21.1,1.9-32.2C47.6,13.6,48,10.7,48,9.7z M24.2,46c-4.7,0-9.3-1.5-13.1-4.2c-9.7-7-12-20.6-5.1-30.4
		C8.8,7.6,15.5,2,21.3,2c1.1,0,2.1,0.2,3.1,0.6c5,2.2,4.2,6.4,3.3,10.7c-0.6,3.4-1.3,6.8,1.4,8.8c1.7,1.2,3.4,1.4,4.6,1.4
		c2-0.2,3.5-0.2,4.3,0.2c1,0.5,1.9,1.1,2.7,1.8c0,4,0.2,8,0.6,11.7l0,0C37.5,42.8,31.2,46,24.2,46z M44,42.7c-1.6-9-1.9-18-0.9-26.9
		h1.8C45.9,24.9,45.6,34.9,44,42.7z M45.2,13.8h-2.4c-0.4-1.2-0.7-3.3-0.7-4c0-0.8,1-3.5,2-6.1c1,2.5,2,5.3,2,6.1
		C46,10.5,45.7,12.6,45.2,13.8z"/>
</g>
</svg>
