<?xml version="1.0" encoding="utf-8"?>
<!-- Generator: Adobe Illustrator 23.1.1, SVG Export Plug-In . SVG Version: 6.00 Build 0)  -->
<svg version="1.1" id="Layer_1" xmlns="http://www.w3.org/2000/svg" xmlns:xlink="http://www.w3.org/1999/xlink" x="0px" y="0px"
	 viewBox="0 0 100 95.7" style="enable-background:new 0 0 100 95.7;" xml:space="preserve">
<style type="text/css">
	.st0{fill:#FFFFFF;}
</style>
<path class="st0" d="M76,63.1c0-0.1,0-0.1,0-0.2c0-0.1,0-0.1,0-0.2c0-0.1,0-0.1,0-0.2c0-0.1,0-0.1,0-0.2c0-0.1,0-0.1,0-0.2
	c0-0.1,0-0.1-0.1-0.2c0-0.1,0-0.1-0.1-0.2c0-0.1-0.1-0.1-0.1-0.2c0,0,0-0.1-0.1-0.1l-24-36.2c0,0,0,0,0,0l0,0c0,0,0,0,0,0
	c0-0.1-0.1-0.1-0.1-0.2c0,0-0.1-0.1-0.1-0.1c-0.1-0.1-0.1-0.1-0.2-0.2c0,0-0.1-0.1-0.1-0.1c-0.1,0-0.1-0.1-0.2-0.1
	c0,0-0.1-0.1-0.1-0.1c0,0,0,0,0,0c-0.1,0-0.1,0-0.2-0.1c0,0,0,0,0,0c0,0-0.1,0-0.1,0c0,0,0,0,0,0c-0.1,0-0.2,0-0.3,0
	c0,0-0.1,0-0.1,0c0,0,0,0,0,0c0,0,0,0,0,0c-0.1,0-0.2,0-0.2,0c0,0-0.1,0-0.1,0c0,0,0,0,0,0c0,0,0,0,0,0c-0.1,0-0.2,0-0.2,0.1
	c0,0-0.1,0-0.1,0c0,0,0,0,0,0c0,0-0.1,0-0.1,0.1c-0.1,0-0.2,0.1-0.2,0.1c0,0-0.1,0.1-0.1,0.1c-0.1,0.1-0.1,0.1-0.2,0.2l0,0
	c-0.1,0.1-0.1,0.1-0.1,0.2c0,0-0.1,0.1-0.1,0.1c0,0,0,0,0,0l-24,36.2c0,0,0,0.1-0.1,0.1c0,0.1-0.1,0.1-0.1,0.2c0,0.1,0,0.1-0.1,0.2
	c0,0.1,0,0.1-0.1,0.2c0,0.1,0,0.1,0,0.2c0,0.1,0,0.1,0,0.2c0,0.1,0,0.1,0,0.2c0,0.1,0,0.1,0,0.2c0,0.1,0,0.1,0,0.2
	c0,0.1,0,0.1,0.1,0.2c0,0.1,0.1,0.1,0.1,0.2c0,0,0,0.1,0.1,0.1L33,78v3.7c-2.2,0.1-3.9,1.9-3.9,4v5.8c0,2.2,1.8,4.1,4.1,4.1h33.6
	c2.2,0,4.1-1.8,4.1-4.1v-5.8c0-2.2-1.7-4-3.9-4V78l8.8-14.4c0,0,0-0.1,0.1-0.1c0-0.1,0.1-0.1,0.1-0.2C75.9,63.2,76,63.1,76,63.1z
	 M37.1,81.7v-2.2h25.8v2.2H37.1z M63.8,75.4H36.2l-7.8-12.8L48,33.1v14.3c-3.3,0.9-5.8,4-5.8,7.6c0,4.3,3.5,7.9,7.9,7.9
	s7.9-3.5,7.9-7.9c0-3.6-2.5-6.7-5.8-7.6V33.1l19.6,29.5L63.8,75.4z M50,51.2c2.1,0,3.8,1.7,3.8,3.8c0,2.1-1.7,3.8-3.8,3.8
	c-2.1,0-3.8-1.7-3.8-3.8C46.2,52.8,47.9,51.2,50,51.2z M66.8,91.6l-33.6,0l0-5.8l1.9,0c0,0,0,0,0,0h29.9c0.1,0,0.1,0,0.1,0l1.7,0
	L66.8,91.6L66.8,91.6z M66.8,93.6v-2h0L66.8,93.6z"/>
<path class="st0" d="M98,1.1h-7c-1.1,0-2,0.9-2,2v1.5H56.6V2c0-1.1-0.9-2-2-2h-9.2c-1.1,0-2,0.9-2,2v2.6H11.1V3.1c0-1.1-0.9-2-2-2H2
	c-1.1,0-2,0.9-2,2v7c0,1.1,0.9,2,2,2h7c1.1,0,2-0.9,2-2V8.7h19.4c-6.4,2.8-12.1,7-16.8,12.3c-1.2-1.1-2.9-1.8-4.7-1.8
	c-3.8,0-6.9,3.1-6.9,6.9s3.1,6.9,6.9,6.9S16,29.8,16,26c0-0.4,0-0.8-0.1-1.2c7-8.5,16.7-14,27.5-15.7v2.1c0,1.1,0.9,2,2,2h9.2
	c1.1,0,2-0.9,2-2V9.2c10.8,1.6,20.5,7.1,27.5,15.7C84.1,25.2,84,25.6,84,26c0,3.8,3.1,6.9,6.9,6.9s6.9-3.1,6.9-6.9s-3.1-6.9-6.9-6.9
	c-1.8,0-3.4,0.7-4.7,1.8c-4.7-5.4-10.4-9.5-16.8-12.3h19.4v1.5c0,1.1,0.9,2,2,2h7c1.1,0,2-0.9,2-2v-7C100,2,99.1,1.1,98,1.1z M7,8.1
	h-3v-3h3V8.1z M9.1,28.9c-1.5,0-2.8-1.3-2.8-2.8s1.3-2.8,2.8-2.8s2.8,1.3,2.8,2.8S10.6,28.9,9.1,28.9z M90.9,23.2
	c1.5,0,2.8,1.3,2.8,2.8s-1.3,2.8-2.8,2.8c-1.5,0-2.8-1.3-2.8-2.8S89.4,23.2,90.9,23.2z M52.6,9.2h-5.1V6.7c0,0,0,0,0,0c0,0,0,0,0,0
	V4.1h5.1L52.6,9.2L52.6,9.2z M95.9,8.1h-3v-3h3V8.1z"/>
</svg>
