<?xml version="1.0" encoding="utf-8"?>
<!-- Generator: Adobe Illustrator 23.1.1, SVG Export Plug-In . SVG Version: 6.00 Build 0)  -->
<svg version="1.1" id="Layer_1" xmlns="http://www.w3.org/2000/svg" xmlns:xlink="http://www.w3.org/1999/xlink" x="0px" y="0px"
	 viewBox="0 0 18.4 24" style="enable-background:new 0 0 18.4 24;" xml:space="preserve">
<style type="text/css">
	.st0{fill:#FFFFFF;}
</style>
<g>
	<g>
		<path class="st0" d="M10.4,24H2.2C1,24,0,23,0,21.8V2.2C0,1,1,0,2.2,0h8.2c1.2,0,2.2,1,2.2,2.2v7.2c0,0.2-0.2,0.4-0.4,0.4
			s-0.4-0.2-0.4-0.4V4.9h-11V19h9.1c0.2,0,0.4,0.2,0.4,0.4s-0.2,0.4-0.4,0.4H0.8v2c0,0.8,0.6,1.4,1.4,1.4h8.2c0.8,0,1.4-0.6,1.4-1.4
			v-1.3c0-0.2,0.2-0.4,0.4-0.4s0.4,0.2,0.4,0.4v1.3C12.6,23,11.6,24,10.4,24z M0.8,4.1h11V2.2c0-0.8-0.6-1.4-1.4-1.4H2.2
			c-0.8,0-1.4,0.6-1.4,1.4C0.8,2.2,0.8,4.1,0.8,4.1z"/>
	</g>
	<g>
		<path class="st0" d="M7.2,3H5.4C5.2,3,5,2.8,5,2.6s0.2-0.4,0.4-0.4h1.8c0.2,0,0.4,0.2,0.4,0.4S7.4,3,7.2,3z"/>
	</g>
	<g>
		<circle class="st0" cx="3.9" cy="2.6" r="0.4"/>
	</g>
	<g>
		<circle class="st0" cx="6.3" cy="21.5" r="1.1"/>
	</g>
	<g>
		<g>
			<g>
				<path class="st0" d="M12.3,20.5L12.3,20.5c-1.4,0-2.2-0.6-3.6-1.7l-2.3-1.8c-0.3-0.2-0.5-0.6-0.6-1c-0.1-0.4,0-0.8,0.2-1.2
					c0.4-0.5,1-0.8,1.7-0.7l-2.8-3.7c-0.2-0.3-0.4-0.7-0.3-1.1c0.1-0.4,0.3-0.8,0.6-1C5.7,7.9,6.7,8,7.2,8.6L8.3,10
					c0.1-0.1,0.2-0.2,0.3-0.3C9,9.4,9.5,9.4,10,9.5c0.1-0.2,0.2-0.4,0.4-0.5c0.6-0.5,1.5-0.4,2,0.2c0.1-0.1,0.2-0.2,0.3-0.3
					c0.6-0.5,1.6-0.4,2.1,0.3l2.5,3.3c1.2,1.5,1.4,3.2,0.6,4.7c-0.4,0.7-0.9,1.3-1.7,1.9c-0.2,0.2-0.4,0.3-0.6,0.4
					c-0.5,0.4-1.1,0.8-1.9,0.9C13.2,20.5,12.7,20.5,12.3,20.5z M7.3,15c-0.3,0-0.5,0.1-0.7,0.4c-0.1,0.2-0.2,0.4-0.1,0.6
					c0,0.2,0.2,0.4,0.3,0.5l2.3,1.9c1.3,1,2,1.5,3.1,1.5l0,0c0.4,0,0.8-0.1,1.3-0.2c0.6-0.1,1.1-0.5,1.6-0.8
					c0.2-0.1,0.4-0.3,0.6-0.4c0.7-0.5,1.2-1.1,1.5-1.6c0.6-1.1,0.5-2.6-0.5-3.8l-2.5-3.3c-0.2-0.3-0.7-0.3-1-0.1
					C13.1,9.7,13,9.9,12.9,10c0,0.2-0.1,0.3-0.3,0.3s-0.3,0-0.4-0.1l-0.3-0.4c-0.2-0.3-0.7-0.4-1-0.1c-0.2,0.1-0.3,0.3-0.3,0.5
					c0,0.1-0.1,0.3-0.3,0.3c-0.1,0.1-0.3,0-0.4-0.1c-0.3-0.2-0.7-0.2-0.9,0c-0.1,0.1-0.2,0.3-0.3,0.5c0,0.2-0.1,0.3-0.3,0.3
					c-0.2,0-0.3,0-0.4-0.1L6.6,9.1C6.4,8.8,5.9,8.7,5.6,9C5.4,9.1,5.3,9.3,5.3,9.5c0,0.2,0,0.4,0.1,0.5l4.1,5.3
					c0.1,0.2,0.1,0.4,0,0.5C9.4,16,9.2,16,9,15.9l-1.3-0.8C7.6,15,7.5,15,7.3,15z"/>
			</g>
		</g>
		<g>
			<path class="st0" d="M9.9,13.2c-0.1,0-0.2-0.1-0.3-0.2l-1.5-2c-0.1-0.2-0.1-0.4,0.1-0.6c0.2-0.1,0.4-0.1,0.6,0.1l1.5,2
				c0.1,0.2,0.1,0.4-0.1,0.6C10.1,13.1,10,13.2,9.9,13.2z"/>
		</g>
		<g>
			<path class="st0" d="M12,12.8c-0.1,0-0.2-0.1-0.3-0.2l-1.8-2.3C9.8,10.2,9.8,9.9,10,9.8c0.2-0.1,0.4-0.1,0.6,0.1l1.8,2.3
				c0.1,0.2,0.1,0.4-0.1,0.6C12.2,12.8,12.1,12.8,12,12.8z"/>
		</g>
		<g>
			<path class="st0" d="M14,12.3c-0.1,0-0.2-0.1-0.3-0.2l-1.5-2c-0.1-0.2-0.1-0.4,0.1-0.6c0.2-0.1,0.4-0.1,0.6,0.1l1.5,2
				c0.1,0.2,0.1,0.4-0.1,0.6C14.2,12.3,14.1,12.3,14,12.3z"/>
		</g>
	</g>
</g>
</svg>
